<svg xmlns="http://www.w3.org/2000/svg" viewBox="0 0 19.273 22"><defs><style>.a{fill:none;stroke:#ef2d52;stroke-linecap:round;stroke-miterlimit:10;stroke-width:2px;}</style></defs><g transform="translate(-1 -1)"><path class="a" d="M17,26.364H8a3.246,3.246,0,0,1-3-3.409V10.5c0-.5.227-.5.727-.5H18.773c.5,0,.727,0,.727.5V23.409A2.725,2.725,0,0,1,17,26.364Z" transform="translate(-1.636 -4.364)"/><line class="a" x2="17.273" transform="translate(2 5.636)"/><path class="a" d="M20.364,4.727a.429.429,0,0,1-.455.455H14.455A.429.429,0,0,1,14,4.727V2.455A.429.429,0,0,1,14.455,2h5.455a.429.429,0,0,1,.455.455Z" transform="translate(-6.545)"/><line class="a" y2="8.182" transform="translate(7 9.727)"/><line class="a" y2="8.182" transform="translate(10.636 9.727)"/><line class="a" y2="8.182" transform="translate(14.273 9.727)"/></g></svg>