<svg xmlns="http://www.w3.org/2000/svg" viewBox="0 0 238.309 80"><defs><style>.a{fill:#99c03a;}.b{fill:#35992d;}.c{fill:#016633;}.d{fill:#013474;}</style></defs><g transform="translate(-167.9 -236.509)"><g transform="translate(363.417 236.509)"><path class="a" d="M634.09,246.123c-1.362,5.277-1.617,7.745.3,17.575,1.575-.979,5.4-3.49,6.426-8.043,1.021-4.6-2.553-10.979-1.958-19.107.043-.468-2.894,3.362-7.234,8.724-7.788,9.617-3.021,16.128-.681,18.426C629.962,251.7,634.09,246.123,634.09,246.123Z" transform="translate(-627.342 -236.509)"/><path class="b" d="M662.2,287.918c-.34.3-.681.6-1.021.851,15.4,5.362,28.172-15.32,28.172-15.32-7.4-2.341-16.554-2.851-23.235,1.83a12.658,12.658,0,0,0-5.319,9.532,50.662,50.662,0,0,1,19.7-6.213C673.056,281.279,668.63,282.556,662.2,287.918Z" transform="translate(-646.562 -256.728)"/><path class="c" d="M661.12,322.163c-5.575-3.49-9.32-.383-9.32-.383a2.727,2.727,0,0,0-.3.383c.085.043.128.085.213.128,7.7,5.064,8.979,10.128,8.979,10.128-2.341-3.149-3.617-4.468-9.915-7.788a7.768,7.768,0,0,0,.17,2.128c.766,3.4,4.17,5.319,4.17,5.319,3.958,2.681,12.894,3.745,12.894,3.745C667.631,332.419,665.461,324.887,661.12,322.163Z" transform="translate(-640.797 -284.761)"/></g><g transform="translate(167.943 273.784)"><path class="d" d="M173.532,340.188v7.745a12.5,12.5,0,0,0,.17,2.766c.043.17.383.3.936.426a6.522,6.522,0,0,0,1.4.17.878.878,0,0,1,.128.553.965.965,0,0,1-.128.553c-2.553-.128-3.873-.17-3.958-.17a11.549,11.549,0,0,0-1.234.043c-.383,0-.851.043-1.362.085s-.936.043-1.319.085a.878.878,0,0,1-.128-.553.966.966,0,0,1,.128-.553,6.824,6.824,0,0,0,1.4-.17c.6-.128.894-.255.936-.426a14.21,14.21,0,0,0,.17-2.766v-6.894a6.168,6.168,0,0,0-.17-1.915.958.958,0,0,0-.723-.426,5.913,5.913,0,0,0-.979-.213,4.378,4.378,0,0,0-.723-.043.789.789,0,0,1-.085-.426,1.222,1.222,0,0,1,.085-.511,16.019,16.019,0,0,0,5.319-1.575c.085,0,.17.085.255.213a.686.686,0,0,1,.128.383,21.44,21.44,0,0,0-.255,2.468Zm-3.021-8.6a1.867,1.867,0,0,1-.553-1.319,1.706,1.706,0,0,1,.553-1.319,1.867,1.867,0,0,1,1.319-.553,1.706,1.706,0,0,1,1.319.553,1.867,1.867,0,0,1,.553,1.319,1.706,1.706,0,0,1-.553,1.319,1.85,1.85,0,0,1-2.638,0Z" transform="translate(-168 -326.57)"/><path class="d" d="M203.166,346.243a5.751,5.751,0,0,1,2.043.3,3.458,3.458,0,0,1,1.362.894,4.223,4.223,0,0,1,.851,1.575,11.531,11.531,0,0,1,.426,2.17,27.2,27.2,0,0,1,.128,2.894v4.085a12.5,12.5,0,0,0,.17,2.766c.043.17.383.3.936.426a6.521,6.521,0,0,0,1.4.17.878.878,0,0,1,.128.553.966.966,0,0,1-.128.553c-2.553-.128-3.873-.17-3.958-.17a11.557,11.557,0,0,0-1.234.043c-.383,0-.851.043-1.362.085s-.936.043-1.319.085a.878.878,0,0,1-.128-.553.966.966,0,0,1,.128-.553,6.825,6.825,0,0,0,1.4-.17c.6-.128.894-.255.936-.426a12.243,12.243,0,0,0,.17-2.766v-3.7c0-2.341-.255-3.958-.766-4.809a3.063,3.063,0,0,0-2.894-1.277,3.2,3.2,0,0,0-1.489.426,6.542,6.542,0,0,0-1.447.936c-.383.34-.6.553-.6.681V358.2a12.5,12.5,0,0,0,.17,2.766c.043.17.383.3.936.426a6.522,6.522,0,0,0,1.4.17.878.878,0,0,1,.128.553.965.965,0,0,1-.128.553c-2.553-.128-3.873-.17-3.958-.17a11.541,11.541,0,0,0-1.234.043c-.383,0-.851.043-1.362.085s-.936.043-1.319.085a.878.878,0,0,1-.128-.553.966.966,0,0,1,.128-.553,6.824,6.824,0,0,0,1.4-.17c.6-.128.894-.255.936-.426a12.242,12.242,0,0,0,.17-2.766v-6.766a6.986,6.986,0,0,0-.17-2.085.958.958,0,0,0-.723-.426,5.915,5.915,0,0,0-.979-.213,4.378,4.378,0,0,0-.723-.043.789.789,0,0,1-.085-.426,1.222,1.222,0,0,1,.085-.511A16.019,16.019,0,0,0,197.8,346.2c.085,0,.17.085.255.213a.686.686,0,0,1,.128.383c-.128,1.021-.213,1.745-.213,2.128,0,.085.043.128.085.128s.043-.043.128-.085a10.021,10.021,0,0,1,2.3-1.745A4.839,4.839,0,0,1,203.166,346.243Z" transform="translate(-182.017 -336.795)"/><path class="d" d="M243.99,345.505a12.5,12.5,0,0,0,.17,2.766c.043.17.383.3.936.426a6.521,6.521,0,0,0,1.4.17.878.878,0,0,1,.128.553.966.966,0,0,1-.128.553c-2.553-.128-3.873-.17-3.958-.17a11.549,11.549,0,0,0-1.234.043c-.383,0-.851.043-1.362.085s-.936.043-1.319.085a.878.878,0,0,1-.128-.553.966.966,0,0,1,.128-.553,6.826,6.826,0,0,0,1.4-.17c.6-.128.894-.255.936-.426a12.242,12.242,0,0,0,.17-2.766V329.122a6.169,6.169,0,0,0-.17-1.915c-.17-.426-.936-.681-2.255-.681a.516.516,0,0,1-.043-.213v-.468c0-.17.043-.255.085-.255a17.368,17.368,0,0,0,5.277-1.489c.085,0,.17.085.255.213a.686.686,0,0,1,.128.383,10.813,10.813,0,0,0-.426,3.234v13.15a19.78,19.78,0,0,0,3.064-2.255c.3-.255.681-.553,1.064-.894.426-.34.723-.6.979-.809s.468-.383.723-.6l.511-.511c.128-.128.17-.213.17-.3s-.043-.128-.085-.213a.927.927,0,0,0-.213-.17c-.085-.043-.213-.085-.3-.128s-.213-.043-.34-.085c-.128,0-.255-.043-.34-.043a.724.724,0,0,1-.3-.043h-.213a.849.849,0,0,1-.085-.6c.043-.255.085-.426.17-.468a33.5,33.5,0,0,0,3.575.17,24.2,24.2,0,0,0,3.277-.17.731.731,0,0,1,.085.553,1.222,1.222,0,0,1-.085.511,5.478,5.478,0,0,0-1.4.255,5.935,5.935,0,0,0-1.447.6q-4.085,3-6,4.6c.723.766,1.575,1.745,2.681,2.936,1.064,1.192,1.958,2.17,2.6,2.894.681.723,1.149,1.192,1.4,1.447a4.44,4.44,0,0,0,1.617.809,5.394,5.394,0,0,0,1.787.213.789.789,0,0,1,.085.426,1.324,1.324,0,0,1-.043.468,8.742,8.742,0,0,1-2.426.213,6.7,6.7,0,0,1-2.766-.553,4.785,4.785,0,0,1-1.787-1.106c-2.128-2.3-3.915-4.213-5.319-5.745a.455.455,0,0,0-.213-.128.368.368,0,0,0-.255-.128l-.085-.043v3.319Z" transform="translate(-208.499 -324.1)"/><path class="d" d="M290.673,346.2a7.691,7.691,0,0,1,5.788,2.255,8.105,8.105,0,0,1,2.17,5.83,8.645,8.645,0,0,1-2.255,6.043,7.314,7.314,0,0,1-5.617,2.426,7.564,7.564,0,0,1-5.788-2.3,8.209,8.209,0,0,1-2.17-5.873,8.541,8.541,0,0,1,2.255-6A7.424,7.424,0,0,1,290.673,346.2Zm-.426,1.234a3.5,3.5,0,0,0-2.511.979,5.1,5.1,0,0,0-1.4,2.341,11.716,11.716,0,0,0-.383,3.107,11.247,11.247,0,0,0,.6,3.575,6.947,6.947,0,0,0,1.787,2.894,3.833,3.833,0,0,0,2.809,1.192,3.5,3.5,0,0,0,2.511-.979,5.1,5.1,0,0,0,1.4-2.341,11.619,11.619,0,0,0,.383-3.064,11.247,11.247,0,0,0-.6-3.575,7.386,7.386,0,0,0-1.787-2.936A3.833,3.833,0,0,0,290.247,347.434Z" transform="translate(-233.947 -336.795)"/><path class="d" d="M329.968,361.126c5.149-.255,8.128-.426,8.937-.426.17,0,.255.128.255.34a5.062,5.062,0,0,1-.468,2c-.511.043-3.49.17-8.937.426-.17,0-.255-.128-.255-.426A5.022,5.022,0,0,1,329.968,361.126Z" transform="translate(-260.773 -345.125)"/><path class="d" d="M360.273,347.113a10.763,10.763,0,0,0,1.192-.043c.383-.043.809-.043,1.277-.085s.894-.043,1.234-.085a2.277,2.277,0,0,1,.043.638c-.043.3-.085.468-.17.468a3.016,3.016,0,0,0-.6.043,3.265,3.265,0,0,0-.809.213c-.3.085-.426.255-.426.383a.156.156,0,0,0,.043.128l4.085,10.043q1.915-4.915,3.319-8.426a3.493,3.493,0,0,0,.213-1.192.907.907,0,0,0-.6-.851,3.985,3.985,0,0,0-1.575-.3c-.085,0-.128-.17-.128-.468a.942.942,0,0,1,.128-.6,7.8,7.8,0,0,1,.894.085,7.6,7.6,0,0,0,.979.085c.34,0,.681.043,1.149.043a9.631,9.631,0,0,0,1.149-.043c.34,0,.723-.043,1.149-.085s.809-.043,1.192-.085c.085.128.085.3.043.638-.043.3-.085.468-.17.468a3.381,3.381,0,0,0-1.277.3,1.741,1.741,0,0,0-1.064.979c-2.638,6.3-4.511,10.766-5.575,13.4-.043.128-.213.255-.426.426a1.543,1.543,0,0,1-.553.213c-.17,0-.3-.043-.34-.128-.6-1.362-1.277-3.064-2.085-5.064s-1.532-3.745-2.128-5.234c-.638-1.489-1.234-2.851-1.83-4.085-.255-.511-.936-.723-2.043-.723a1.526,1.526,0,0,1,0-1.064c.34,0,.766.043,1.234.085s.894.085,1.234.085A2.9,2.9,0,0,1,360.273,347.113Z" transform="translate(-276.269 -337.197)"/><path class="d" d="M403.7,353.536a7.359,7.359,0,0,0,1.66,5.277,5.788,5.788,0,0,0,4.383,1.872,4.7,4.7,0,0,0,2.426-.638,6.115,6.115,0,0,0,1.66-1.319l.085.085a.929.929,0,0,1,.128.213.6.6,0,0,1,.085.255,1.564,1.564,0,0,1-.213.681,7.22,7.22,0,0,1-.723.979,13.626,13.626,0,0,1-1.106,1.021,5.274,5.274,0,0,1-1.617.851,6.107,6.107,0,0,1-1.958.34,6.877,6.877,0,0,1-5.319-2.213,7.646,7.646,0,0,1-2.085-5.532,9.1,9.1,0,0,1,.681-3.49,9.253,9.253,0,0,1,1.745-2.809,9.445,9.445,0,0,1,2.341-1.83,5.191,5.191,0,0,1,2.511-.681,6.507,6.507,0,0,1,2.3.383,5.224,5.224,0,0,1,1.617.936,4.852,4.852,0,0,1,.979,1.277,8.022,8.022,0,0,1,.553,1.319,5.2,5.2,0,0,1,.128,1.106,3.3,3.3,0,0,1-.213,1.277.8.8,0,0,1-.681.468c-.511.043-2.128.085-4.809.17C405.526,353.494,403.994,353.536,403.7,353.536Zm.17-1.4h6.043c.553,0,.809-.3.851-.851a4.4,4.4,0,0,0-.128-.936,6.791,6.791,0,0,0-.511-1.149,3.172,3.172,0,0,0-.979-1.021,2.416,2.416,0,0,0-1.447-.426,3.067,3.067,0,0,0-1.617.426,3.569,3.569,0,0,0-1.149,1.106,6.208,6.208,0,0,0-.681,1.277c-.17.426-.3.809-.383,1.106S403.824,352.132,403.866,352.132Z" transform="translate(-301.904 -337.025)"/><path class="d" d="M448.571,346.342a3.026,3.026,0,0,1,1.362.3,2.029,2.029,0,0,1,.894.766,3.723,3.723,0,0,1,.128,1.021,2.054,2.054,0,0,1-.426,1.4,1.169,1.169,0,0,1-.809.511,1.809,1.809,0,0,1-.468-.085,4.955,4.955,0,0,1-.553-.34,1.287,1.287,0,0,0-.383-.255,2.339,2.339,0,0,0-1.362-.426,2.635,2.635,0,0,0-2.043,1.277,3.759,3.759,0,0,0-.936,2.085v5.7a12.494,12.494,0,0,0,.17,2.766c.043.17.468.3,1.319.426a12.45,12.45,0,0,0,1.872.17.878.878,0,0,1,.128.553.966.966,0,0,1-.128.553c-2.553-.128-4.085-.17-4.6-.17-.255,0-1.617.043-4.17.17a.878.878,0,0,1-.128-.553.966.966,0,0,1,.128-.553,6.826,6.826,0,0,0,1.4-.17c.6-.128.894-.255.936-.426a14.207,14.207,0,0,0,.17-2.766v-6.894a6.168,6.168,0,0,0-.17-1.915.958.958,0,0,0-.723-.426,5.906,5.906,0,0,0-.979-.213c-.255,0-.511-.043-.723-.043a.79.79,0,0,1-.085-.426,1.223,1.223,0,0,1,.085-.511A16.018,16.018,0,0,0,443.8,346.3c.085,0,.17.085.255.213a.686.686,0,0,1,.128.383,12.951,12.951,0,0,0-.128,1.66c-.085.979-.128,1.532-.128,1.745,0,.043,0,.085.043.085s.043.043.085,0l.043-.043a9.8,9.8,0,0,1,1.915-2.681A3.994,3.994,0,0,1,448.571,346.342Z" transform="translate(-323.331 -336.853)"/><path class="d" d="M479.445,346.4a13.874,13.874,0,0,1,2.043.213c.809.128,1.4.213,1.745.255a21.14,21.14,0,0,1,.426,4.085c0,.128-.128.17-.383.17a1.026,1.026,0,0,1-.638-.17,6.784,6.784,0,0,0-1.192-2.341,2.414,2.414,0,0,0-1.915-1.106,2.781,2.781,0,0,0-1.958.638,2.154,2.154,0,0,0-.681,1.7,2.745,2.745,0,0,0,.128.851,4.566,4.566,0,0,0,.3.638,3.382,3.382,0,0,0,.553.6,3.906,3.906,0,0,0,.638.468c.128.085.426.255.809.468s.638.383.809.468c.128.043.34.213.723.426a8.743,8.743,0,0,1,.851.511q.255.192.766.511a3.032,3.032,0,0,1,.766.638c.17.213.383.426.553.681a2.29,2.29,0,0,1,.426.851,3.319,3.319,0,0,1,.128.936,4.555,4.555,0,0,1-1.7,3.66,5.938,5.938,0,0,1-4,1.447,13.839,13.839,0,0,1-1.4-.085c-.426-.085-.936-.17-1.532-.3s-1.064-.255-1.362-.3a10.752,10.752,0,0,1-.426-1.83,15.288,15.288,0,0,1-.213-2,1.286,1.286,0,0,1,.681-.213.8.8,0,0,1,.34.085,5.622,5.622,0,0,0,1.489,2.426,3.567,3.567,0,0,0,2.511,1.106,2.742,2.742,0,0,0,1.915-.723,2.564,2.564,0,0,0,.766-1.958,3.25,3.25,0,0,0-.213-1.149,2.685,2.685,0,0,0-.766-.979,6.369,6.369,0,0,0-.979-.723c-.3-.17-.723-.426-1.319-.723s-1.021-.553-1.277-.681a8.249,8.249,0,0,1-2.043-1.66,3.484,3.484,0,0,1-.766-2.3,4.05,4.05,0,0,1,1.617-3.277A5.788,5.788,0,0,1,479.445,346.4Z" transform="translate(-343.609 -336.91)"/><path class="d" d="M514.017,346.5a3.739,3.739,0,0,1,2.851,1.489,5.478,5.478,0,0,1,1.234,3.617v7.66c0,1.149.383,1.745,1.149,1.745a.936.936,0,0,0,.34-.043c.128-.043.213-.043.255-.085a.929.929,0,0,0,.213-.128.588.588,0,0,0,.17-.128c.042-.043.085-.085.128-.085a.132.132,0,0,1,.085-.043c.085,0,.128.085.128.3a1.4,1.4,0,0,1-.17.723,7.492,7.492,0,0,1-1.362.894,3.272,3.272,0,0,1-1.447.511,1.97,1.97,0,0,1-1.447-.766,3.87,3.87,0,0,1-.851-1.66,14.889,14.889,0,0,1-2.128,1.532,5.534,5.534,0,0,1-2.426.979,4.338,4.338,0,0,1-3.107-1.234,3.981,3.981,0,0,1-1.234-3.021,3.167,3.167,0,0,1,.6-1.872,3.084,3.084,0,0,1,1.277-1.106c.426-.128,1.149-.426,2.213-.766,1.064-.383,1.958-.681,2.681-.936s1.234-.468,1.575-.6a.926.926,0,0,0,.383-.3,2.074,2.074,0,0,0,.085-.638v-1.021a3.553,3.553,0,0,0-.936-2.426,2.9,2.9,0,0,0-2.255-1.106,1.572,1.572,0,0,0-1.362.553,3.747,3.747,0,0,0-.638,1.745c-.213,1.192-.809,1.787-1.745,1.787a1.054,1.054,0,0,1-.894-.468,1.671,1.671,0,0,1-.34-1.064,3.792,3.792,0,0,1,.085-.468,1.43,1.43,0,0,1,.17-.426,12.755,12.755,0,0,1,3.064-2.043A6.336,6.336,0,0,1,514.017,346.5Zm-2,14.469a5.062,5.062,0,0,0,2.085-.6c.766-.383,1.149-.723,1.149-.936v-5.064c-1.915.553-3.064.936-3.447,1.064a3.432,3.432,0,0,0-1.66,1.149,2.758,2.758,0,0,0,.128,3.575A2.267,2.267,0,0,0,512.017,360.969Z" transform="translate(-362.393 -336.968)"/><path class="d" d="M555.367,346.243a5.751,5.751,0,0,1,2.043.3,3.458,3.458,0,0,1,1.362.894,4.224,4.224,0,0,1,.851,1.575,11.529,11.529,0,0,1,.426,2.17,27.208,27.208,0,0,1,.128,2.894v4.085a12.494,12.494,0,0,0,.17,2.766c.043.17.383.3.936.426a6.521,6.521,0,0,0,1.4.17.878.878,0,0,1,.128.553.966.966,0,0,1-.128.553c-2.553-.128-3.873-.17-3.958-.17a11.558,11.558,0,0,0-1.234.043c-.383,0-.851.043-1.362.085s-.936.043-1.319.085a.877.877,0,0,1-.128-.553.965.965,0,0,1,.128-.553,6.825,6.825,0,0,0,1.4-.17c.6-.128.894-.255.936-.426a12.24,12.24,0,0,0,.17-2.766v-3.7c0-2.341-.255-3.958-.766-4.809a3.063,3.063,0,0,0-2.894-1.277,3.2,3.2,0,0,0-1.489.426,6.541,6.541,0,0,0-1.447.936c-.383.34-.6.553-.6.681V358.2a12.494,12.494,0,0,0,.17,2.766c.043.17.383.3.936.426a6.523,6.523,0,0,0,1.4.17.878.878,0,0,1,.128.553.966.966,0,0,1-.128.553c-2.553-.128-3.873-.17-3.958-.17a11.541,11.541,0,0,0-1.234.043c-.383,0-.851.043-1.362.085s-.936.043-1.319.085a.878.878,0,0,1-.128-.553.966.966,0,0,1,.128-.553,6.823,6.823,0,0,0,1.4-.17c.6-.128.894-.255.936-.426a12.241,12.241,0,0,0,.17-2.766v-6.766a6.986,6.986,0,0,0-.17-2.085.958.958,0,0,0-.723-.426,5.914,5.914,0,0,0-.979-.213c-.255,0-.511-.043-.723-.043a.789.789,0,0,1-.085-.426,1.221,1.221,0,0,1,.085-.511A16.019,16.019,0,0,0,550,346.2c.085,0,.17.085.255.213a.687.687,0,0,1,.128.383c-.128,1.021-.213,1.745-.213,2.128,0,.085.043.128.085.128s.043-.043.128-.085a10.02,10.02,0,0,1,2.3-1.745A4.733,4.733,0,0,1,555.367,346.243Z" transform="translate(-384.337 -336.795)"/><path class="d" d="M601.251,333.547a9.481,9.481,0,0,1,1.4.128,5.985,5.985,0,0,1,1.149.255c.128,0,.17-.255.17-.766v-4.043a6.167,6.167,0,0,0-.17-1.915c-.17-.426-.936-.681-2.255-.681a.516.516,0,0,1-.043-.213v-.468c0-.17.043-.255.085-.255a17.37,17.37,0,0,0,5.277-1.489c.085,0,.17.085.255.213a.687.687,0,0,1,.128.383,10.812,10.812,0,0,0-.426,3.234V343.8a13.828,13.828,0,0,0,.255,3.617,1.122,1.122,0,0,0,.468.383,4.646,4.646,0,0,0,.723.213c.255.043.468.043.681.085a1.178,1.178,0,0,1,.34.043c.085.043.128.17.128.426a1.916,1.916,0,0,1-.085.34c-.043.128-.128.213-.213.213-.34.043-.766.085-1.234.128-.468.085-.894.17-1.319.255-.383.085-.766.213-1.106.3s-.6.17-.851.255l-.34.085c-.213,0-.3-.255-.3-.723V348.1c-.043-.17-.043-.255-.128-.213a9.494,9.494,0,0,1-2.17,1.4,6.192,6.192,0,0,1-2.766.809,5.843,5.843,0,0,1-4.553-2.3,8.3,8.3,0,0,1-1.958-5.617,6.98,6.98,0,0,1,.894-3.362,9.063,9.063,0,0,1,2.255-2.766,13.615,13.615,0,0,1,2.894-1.787A6.253,6.253,0,0,1,601.251,333.547Zm-1.192,1.575a3.785,3.785,0,0,0-3.277,1.83,7.386,7.386,0,0,0-1.234,4.3,7.6,7.6,0,0,0,1.4,4.639,4.461,4.461,0,0,0,3.83,1.872A4.836,4.836,0,0,0,603,347.25c.681-.34,1.021-.681,1.021-.979v-9.4c0-.426-.383-.851-1.192-1.234A7.275,7.275,0,0,0,600.06,335.122Z" transform="translate(-411.796 -324.1)"/></g><g transform="translate(167.9 307.232)"><path class="d" d="M170.624,403.6a4.21,4.21,0,0,1,1.489.255,3.235,3.235,0,0,1,1.106.681,3.3,3.3,0,0,1,.681,1.021,3.257,3.257,0,0,1,.255,1.277,8.267,8.267,0,0,1-.085,1.021,4.342,4.342,0,0,1-.383.936,2.332,2.332,0,0,1-.681.766,3.1,3.1,0,0,1-1.064.511,5.236,5.236,0,0,1-1.489.213h-2.511a.156.156,0,0,1-.043-.128c0-.085,0-.128.043-.128a1.762,1.762,0,0,0,.426-.043.656.656,0,0,0,.3-.128,3.06,3.06,0,0,0,.043-.766v-4.3a3.263,3.263,0,0,0-.043-.766c0-.043-.128-.085-.3-.128a1.6,1.6,0,0,0-.426-.043c0-.043-.043-.085-.043-.128,0-.085,0-.128.043-.128.681.043,1.064.043,1.192.043h.723A5.768,5.768,0,0,1,170.624,403.6Zm-1.021,1.192v4.3a2.3,2.3,0,0,0,.043.723c.085.085.34.128.809.128a2.575,2.575,0,0,0,1.021-.17,3.478,3.478,0,0,0,.851-.511,2.348,2.348,0,0,0,.6-.894,4.012,4.012,0,0,0,.213-1.277,3.509,3.509,0,0,0-.17-1.192,2.9,2.9,0,0,0-.426-.894,2.135,2.135,0,0,0-.638-.6,2.025,2.025,0,0,0-.766-.34,2.744,2.744,0,0,0-.851-.128c-.426,0-.681.043-.681.128Z" transform="translate(-167.9 -403.217)"/><path class="d" d="M185.538,410.715a1.982,1.982,0,0,0,.468,1.447,1.545,1.545,0,0,0,1.192.511,1.025,1.025,0,0,0,.638-.17c.213-.128.34-.255.468-.34h.043l.043.043v.085a.256.256,0,0,1-.043.17,1.127,1.127,0,0,1-.213.255,1.851,1.851,0,0,1-.3.255,1.331,1.331,0,0,1-.426.213,2.137,2.137,0,0,1-.511.085,1.956,1.956,0,0,1-1.447-.6,2.022,2.022,0,0,1-.553-1.489,2.29,2.29,0,0,1,.17-.936,2.481,2.481,0,0,1,1.106-1.277,1.459,1.459,0,0,1,.681-.17,3.284,3.284,0,0,1,.638.085,1.861,1.861,0,0,1,.426.255.662.662,0,0,1,.255.34.679.679,0,0,1,.128.34.831.831,0,0,1,.043.3.731.731,0,0,1-.043.34c-.043.085-.085.128-.17.128-.128,0-.553.043-1.319.043A11.56,11.56,0,0,1,185.538,410.715Zm.043-.383h1.66a.2.2,0,0,0,.213-.213.54.54,0,0,0-.043-.255c-.043-.085-.085-.213-.128-.3a.384.384,0,0,0-.255-.255.686.686,0,0,0-.383-.128.719.719,0,0,0-.426.128,1,1,0,0,0-.3.3,1.274,1.274,0,0,0-.17.34,1.083,1.083,0,0,0-.085.3A.083.083,0,0,1,185.581,410.332Z" transform="translate(-177.666 -406.204)"/><path class="d" d="M197.662,409.934a1.667,1.667,0,0,0-.085-.553.616.616,0,0,0-.553-.213.186.186,0,0,1-.043-.128c0-.085,0-.128.043-.128a3.971,3.971,0,0,0,1.362-.213c.043,0,.043.043.085.085a.329.329,0,0,1,.043.128,1.686,1.686,0,0,0-.085.638v2.128a3.818,3.818,0,0,0,.085.766c0,.043.043.085.128.085a.319.319,0,0,0,.213.043h.255a.186.186,0,0,1,.043.128.132.132,0,0,1-.043.085.149.149,0,0,1-.043.085,1.058,1.058,0,0,0-.34.043.8.8,0,0,0-.34.085,2.72,2.72,0,0,0-.3.085c-.085.043-.17.043-.213.085l-.085.043c-.043,0-.043,0-.043-.043s-.043-.085-.043-.128v-.511a4.142,4.142,0,0,1-.638.468,2.1,2.1,0,0,1-.766.213,1.178,1.178,0,0,1-.553-.128,1.468,1.468,0,0,1-.383-.34,1.573,1.573,0,0,1-.213-.468c-.043-.17-.085-.383-.128-.511,0-.17-.043-.34-.043-.553v-1.277a1.667,1.667,0,0,0-.085-.553.616.616,0,0,0-.553-.213.187.187,0,0,1-.043-.128c0-.085,0-.128.043-.128a3.97,3.97,0,0,0,1.362-.213c.043,0,.043.043.085.085a.156.156,0,0,1,.043.128,1.984,1.984,0,0,0-.085.681v1.489a2.154,2.154,0,0,0,.255,1.192.859.859,0,0,0,.766.383,1.2,1.2,0,0,0,.638-.17c.213-.128.3-.255.3-.383v-2.17Z" transform="translate(-183.065 -406.147)"/><path class="d" d="M208.062,407.162h1.319c.043,0,.043.043.043.128a.386.386,0,0,1-.128.3H208.1v2.638c0,.553.213.809.681.809a1.266,1.266,0,0,0,.638-.213.149.149,0,0,1,.043.085c0,.085,0,.128-.043.17l-.213.213a2.378,2.378,0,0,1-.34.213.97.97,0,0,1-.468.128,1.179,1.179,0,0,1-.383-.043,1.273,1.273,0,0,1-.34-.17,1.175,1.175,0,0,1-.255-.34,1.888,1.888,0,0,1-.085-.553v-2.936h-.6c-.043,0-.043-.043-.043-.085a.734.734,0,0,1,.128-.17l.17-.17h.383v-.638c.043-.043.128-.17.213-.255a1.851,1.851,0,0,1,.255-.3l.128-.128.043-.043h.085a.042.042,0,0,1,.043.043v1.319Z" transform="translate(-190.189 -404.481)"/><path class="d" d="M216.089,408.8a2.618,2.618,0,0,1,.553.043,3.175,3.175,0,0,1,.468.085,4.162,4.162,0,0,1,.128,1.106c0,.043-.043.043-.085.043-.085,0-.128,0-.17-.043a1.564,1.564,0,0,0-.34-.638.658.658,0,0,0-.511-.3.622.622,0,0,0-.511.17.581.581,0,0,0-.17.468.54.54,0,0,0,.043.255c.043.085.043.128.085.17l.17.17a.588.588,0,0,1,.17.128.929.929,0,0,0,.213.128.932.932,0,0,1,.213.128c.043,0,.085.043.213.128.085.043.17.128.213.128a.93.93,0,0,0,.213.128.929.929,0,0,1,.213.17c.043.043.085.128.17.17.043.085.085.128.128.213a.54.54,0,0,1,.043.255,1.272,1.272,0,0,1-.468.979,1.667,1.667,0,0,1-1.106.383,1.178,1.178,0,0,1-.383-.043,1.874,1.874,0,0,1-.426-.085,2.709,2.709,0,0,1-.383-.085,2.123,2.123,0,0,1-.128-.511,2.825,2.825,0,0,1-.043-.553.256.256,0,0,1,.17-.043h.085a1.307,1.307,0,0,0,.426.638.907.907,0,0,0,.681.3.726.726,0,0,0,.723-.723.631.631,0,0,0-.043-.3,1.128,1.128,0,0,0-.213-.255c-.085-.085-.17-.128-.255-.213a2.376,2.376,0,0,0-.34-.213l-.34-.17a1.537,1.537,0,0,1-.553-.468,1.045,1.045,0,0,1-.213-.638,1.125,1.125,0,0,1,.426-.894C215.451,408.754,215.706,408.8,216.089,408.8Z" transform="translate(-194.727 -406.201)"/><path class="d" d="M226.6,409.3a.52.52,0,0,1-.128.383.368.368,0,0,1-.255.128c-.085,0-.128-.043-.213-.085a.748.748,0,0,1-.213-.17c-.085-.085-.128-.128-.17-.128a2.446,2.446,0,0,0-.3-.17.631.631,0,0,0-.3-.043.952.952,0,0,0-.766.468,2.121,2.121,0,0,0-.34,1.234,1.737,1.737,0,0,0,.468,1.277,1.577,1.577,0,0,0,1.192.426,1.025,1.025,0,0,0,.638-.17,1.856,1.856,0,0,0,.426-.34h.043l.043.043v.085a.256.256,0,0,1-.043.17,1.128,1.128,0,0,1-.213.255,1.849,1.849,0,0,1-.3.255,1.331,1.331,0,0,1-.426.213,2.137,2.137,0,0,1-.511.085,1.828,1.828,0,0,1-1.064-.3,2.084,2.084,0,0,1-.723-.766,1.977,1.977,0,0,1-.255-.979,1.727,1.727,0,0,1,.17-.809,1.853,1.853,0,0,1,.426-.681,2.083,2.083,0,0,1,.553-.511,4.655,4.655,0,0,1,.638-.34,1.708,1.708,0,0,1,.638-.128,1.4,1.4,0,0,1,.894.255c.043.043.043.085.085.128C226.6,409.168,226.6,409.211,226.6,409.3Z" transform="translate(-199.667 -406.147)"/><path class="d" d="M235.594,405.411a2.156,2.156,0,0,1,.553.085.765.765,0,0,1,.383.255,1,1,0,0,1,.213.426c.043.17.085.383.128.6,0,.213.043.468.043.766v1.106a3.264,3.264,0,0,0,.043.766q0,.064.255.128a1.465,1.465,0,0,0,.383.043c0,.043.043.085.043.128,0,.085,0,.128-.043.128-.681-.043-1.064-.043-1.064-.043h-.34a1.178,1.178,0,0,0-.383.043h-.34a.156.156,0,0,1-.043-.128c0-.085,0-.128.043-.128a1.465,1.465,0,0,0,.383-.043q.255-.064.255-.128a3.061,3.061,0,0,0,.043-.766v-1.021a3.092,3.092,0,0,0-.213-1.319.83.83,0,0,0-.766-.34.952.952,0,0,0-.426.128,1.486,1.486,0,0,0-.383.255c-.085.085-.17.128-.17.17V408.6a3.264,3.264,0,0,0,.043.766q0,.064.255.128a1.466,1.466,0,0,0,.383.043c0,.043.043.085.043.128,0,.085,0,.128-.043.128-.681-.043-1.064-.043-1.064-.043h-.34a1.178,1.178,0,0,0-.383.043h-.34a.156.156,0,0,1-.043-.128c0-.085,0-.128.043-.128a1.466,1.466,0,0,0,.383-.043q.255-.064.255-.128a3.061,3.061,0,0,0,.043-.766v-4.383a1.468,1.468,0,0,0-.043-.511c-.043-.128-.255-.17-.6-.17v-.17c0-.043,0-.085.043-.085a4.878,4.878,0,0,0,1.447-.383c.043,0,.043,0,.085.043a.156.156,0,0,1,.043.128,2.486,2.486,0,0,0-.128.894v2.255h.085a3.086,3.086,0,0,1,.638-.468A.642.642,0,0,1,235.594,405.411Z" transform="translate(-205.124 -402.815)"/><path class="d" d="M245.638,404.219a1.468,1.468,0,0,0-.043-.511c-.043-.128-.255-.17-.6-.17v-.17c0-.043,0-.085.043-.085a4.878,4.878,0,0,0,1.447-.383c.043,0,.043,0,.085.043a.156.156,0,0,1,.043.128,2.486,2.486,0,0,0-.128.894v4.766a3.263,3.263,0,0,0,.043.766q0,.064.255.128a1.466,1.466,0,0,0,.383.043c0,.043.043.085.043.128,0,.085,0,.128-.043.128-.681-.043-1.064-.043-1.064-.043h-.34a1.178,1.178,0,0,0-.383.043h-.34a.156.156,0,0,1-.043-.128c0-.085,0-.128.043-.128a1.466,1.466,0,0,0,.383-.043q.255-.064.255-.128a3.06,3.06,0,0,0,.043-.766v-4.511Z" transform="translate(-212.19 -402.815)"/><path class="d" d="M253.385,408.9a.967.967,0,0,1,.766.383,1.518,1.518,0,0,1,.34.979v2.085c0,.3.085.468.3.468h.17a251.781,251.781,0,0,0,.128-.128h.043c.043,0,.043.043.043.085a.384.384,0,0,1-.043.213,1.485,1.485,0,0,1-.383.255.979.979,0,0,1-.383.128.588.588,0,0,1-.383-.213.684.684,0,0,1-.213-.468c-.085.085-.3.213-.6.426a1.509,1.509,0,0,1-.681.255,1.265,1.265,0,0,1-.851-.34,1.163,1.163,0,0,1-.34-.809.743.743,0,0,1,.17-.511.569.569,0,0,1,.34-.3c.128-.043.3-.128.6-.213a4.559,4.559,0,0,0,.723-.255c.213-.085.34-.128.426-.17a.092.092,0,0,0,.085-.085c0-.043.043-.085.043-.17v-.3a1.043,1.043,0,0,0-.255-.681.743.743,0,0,0-.6-.3.415.415,0,0,0-.383.17.98.98,0,0,0-.17.468c-.043.34-.213.468-.468.468a.368.368,0,0,1-.255-.128.615.615,0,0,1-.085-.3.156.156,0,0,1,.043-.128c0-.043.043-.085.043-.128a2.992,2.992,0,0,1,.809-.553A2.924,2.924,0,0,1,253.385,408.9Zm-.553,3.915a1.03,1.03,0,0,0,.553-.17c.213-.128.3-.213.3-.255v-1.362c-.511.17-.851.255-.936.3a1.268,1.268,0,0,0-.468.3.64.64,0,0,0-.17.468.884.884,0,0,0,.213.511A.785.785,0,0,0,252.832,412.815Z" transform="translate(-215.809 -406.262)"/><path class="d" d="M264.336,408.743a2.155,2.155,0,0,1,.553.085.765.765,0,0,1,.383.255,1,1,0,0,1,.213.426c.043.17.085.383.128.6,0,.213.043.468.043.766v1.106a3.262,3.262,0,0,0,.043.766q0,.064.255.128a1.466,1.466,0,0,0,.383.043c0,.043.043.085.043.128,0,.085,0,.128-.043.128-.681-.043-1.064-.043-1.064-.043h-.34a1.178,1.178,0,0,0-.383.043h-.34a.156.156,0,0,1-.043-.128c0-.085,0-.128.043-.128a1.466,1.466,0,0,0,.383-.043q.255-.064.255-.128a3.06,3.06,0,0,0,.043-.766v-1.021a3.092,3.092,0,0,0-.213-1.319.83.83,0,0,0-.766-.34.952.952,0,0,0-.426.128,1.486,1.486,0,0,0-.383.255c-.085.085-.17.128-.17.17v2.085a3.265,3.265,0,0,0,.043.766q0,.064.255.128a1.466,1.466,0,0,0,.383.043c0,.043.043.085.043.128,0,.085,0,.128-.043.128-.681-.043-1.064-.043-1.064-.043h-.34a1.179,1.179,0,0,0-.383.043h-.34a.156.156,0,0,1-.043-.128c0-.085,0-.128.043-.128a1.466,1.466,0,0,0,.383-.043q.255-.064.255-.128a3.062,3.062,0,0,0,.043-.766V410.1a1.621,1.621,0,0,0-.043-.553c0-.043-.085-.085-.213-.128a.749.749,0,0,0-.255-.043h-.213a.33.33,0,0,0-.043-.128c0-.085,0-.128.043-.128a4.462,4.462,0,0,0,1.447-.426c.043,0,.043,0,.085.043a.132.132,0,0,1,.043.085,3.6,3.6,0,0,0-.043.553v.043h.043a3.088,3.088,0,0,1,.638-.468A1.412,1.412,0,0,1,264.336,408.743Z" transform="translate(-221.611 -406.147)"/><path class="d" d="M276.583,405.411a1.465,1.465,0,0,1,.383.043c.17.043.255.043.3.085.043,0,.043-.085.043-.213v-1.106a1.468,1.468,0,0,0-.043-.511c-.043-.128-.255-.17-.6-.17v-.17c0-.043,0-.085.043-.085a4.878,4.878,0,0,0,1.447-.383c.043,0,.043,0,.085.043a.156.156,0,0,1,.043.128,2.485,2.485,0,0,0-.128.894v4.3a3.414,3.414,0,0,0,.085.979c0,.043.043.085.128.085a.256.256,0,0,0,.17.043h.255a.186.186,0,0,1,.043.128.132.132,0,0,1-.043.085.042.042,0,0,1-.043.043,1.058,1.058,0,0,0-.34.043.8.8,0,0,0-.34.085,2.716,2.716,0,0,0-.3.085c-.085.043-.17.043-.213.085l-.085.043c-.043,0-.085-.043-.085-.213v-.34c0-.043,0-.043-.043-.043a1.424,1.424,0,0,1-.6.383,2.1,2.1,0,0,1-.766.213,1.553,1.553,0,0,1-1.234-.638,2.409,2.409,0,0,1-.553-1.532,1.94,1.94,0,0,1,.255-.936,3.668,3.668,0,0,1,.6-.766,2.479,2.479,0,0,1,.766-.468A1.9,1.9,0,0,1,276.583,405.411Zm-.34.426a1,1,0,0,0-.894.511,2.14,2.14,0,0,0-.34,1.149,2.068,2.068,0,0,0,.383,1.277,1.213,1.213,0,0,0,1.021.511,1.36,1.36,0,0,0,.6-.128c.17-.085.3-.17.3-.255v-2.553c0-.128-.128-.213-.34-.34A1.218,1.218,0,0,0,276.243,405.836Z" transform="translate(-228.964 -402.815)"/><path class="d" d="M287.989,408.8a2.618,2.618,0,0,1,.553.043,3.178,3.178,0,0,1,.468.085,4.162,4.162,0,0,1,.128,1.106c0,.043-.043.043-.085.043-.085,0-.128,0-.17-.043a1.564,1.564,0,0,0-.34-.638.658.658,0,0,0-.511-.3.622.622,0,0,0-.511.17.581.581,0,0,0-.17.468.54.54,0,0,0,.043.255c.043.085.043.128.085.17l.17.17a.588.588,0,0,1,.17.128.931.931,0,0,0,.213.128.932.932,0,0,1,.213.128c.043,0,.085.043.213.128.085.043.17.128.213.128a.93.93,0,0,0,.213.128.927.927,0,0,1,.213.17c.043.043.085.128.17.17.043.085.085.128.128.213a.54.54,0,0,1,.043.255,1.272,1.272,0,0,1-.468.979,1.667,1.667,0,0,1-1.106.383,1.179,1.179,0,0,1-.383-.043,1.872,1.872,0,0,1-.426-.085,2.713,2.713,0,0,1-.383-.085,2.122,2.122,0,0,1-.128-.511,2.824,2.824,0,0,1-.043-.553.256.256,0,0,1,.17-.043h.085a1.307,1.307,0,0,0,.426.638.907.907,0,0,0,.681.3.727.727,0,0,0,.723-.723.631.631,0,0,0-.043-.3,1.129,1.129,0,0,0-.213-.255c-.085-.085-.17-.128-.255-.213a3.938,3.938,0,0,1-.34-.213l-.34-.17a1.537,1.537,0,0,1-.553-.468,1.045,1.045,0,0,1-.213-.638,1.125,1.125,0,0,1,.426-.894A2.537,2.537,0,0,1,287.989,408.8Z" transform="translate(-236.029 -406.204)"/><path class="d" d="M304.643,403.4a1.447,1.447,0,0,1,.426.043,1.058,1.058,0,0,0,.34.043,2.717,2.717,0,0,0,.383.085,1.872,1.872,0,0,0,.426.085c.043.3.085.766.128,1.447,0,.043,0,.043-.085.085a.213.213,0,0,1-.255,0,1.315,1.315,0,0,0-.085-.34c-.043-.128-.128-.255-.17-.383a1.147,1.147,0,0,0-.3-.34.865.865,0,0,0-.383-.255.842.842,0,0,0-.468-.085,1.587,1.587,0,0,0-.511.085,1.174,1.174,0,0,0-.34.255.856.856,0,0,0-.17.34,1.179,1.179,0,0,0-.043.383.724.724,0,0,0,.043.3c.043.085.043.17.085.255a.747.747,0,0,0,.17.213l.17.17a.929.929,0,0,0,.213.17c.085.085.17.128.213.17a2.507,2.507,0,0,0,.255.17,2.529,2.529,0,0,1,.255.17,2.523,2.523,0,0,0,.255.17,2.446,2.446,0,0,0,.3.17c.085.043.17.128.3.213s.213.17.3.213a1.444,1.444,0,0,1,.255.255.763.763,0,0,1,.213.3c.043.085.085.213.128.3a.937.937,0,0,1,.043.34,1.669,1.669,0,0,1-.17.766,2.069,2.069,0,0,1-.468.6,2.158,2.158,0,0,1-.681.383,2.409,2.409,0,0,1-.766.128,2.073,2.073,0,0,1-.511-.043c-.17-.043-.34-.043-.468-.085s-.255-.043-.468-.085a2.158,2.158,0,0,0-.383-.085c-.043-.255-.085-.553-.128-.936-.043-.34-.085-.553-.085-.638a.368.368,0,0,1,.255-.128c.043,0,.085.043.128.085a.789.789,0,0,0,.085.3,1.51,1.51,0,0,0,.17.383,1.528,1.528,0,0,0,.3.426,1.268,1.268,0,0,0,.468.3,1.421,1.421,0,0,0,.638.128,1.188,1.188,0,0,0,.851-.34,1.219,1.219,0,0,0,.34-.894.724.724,0,0,0-.043-.3.605.605,0,0,0-.085-.255c-.043-.085-.085-.128-.128-.213s-.128-.128-.17-.17a.929.929,0,0,0-.213-.128.931.931,0,0,1-.213-.128.693.693,0,0,0-.255-.128l-.255-.128a2.522,2.522,0,0,1-.255-.17,2.527,2.527,0,0,0-.255-.17,2.512,2.512,0,0,1-.255-.17,2.523,2.523,0,0,0-.255-.17,1.618,1.618,0,0,1-.255-.213.929.929,0,0,1-.17-.213.891.891,0,0,1-.17-.255,2.707,2.707,0,0,1-.085-.3.83.83,0,0,1-.043-.34,1.532,1.532,0,0,1,.3-.936,2.119,2.119,0,0,1,.723-.638A1.573,1.573,0,0,1,304.643,403.4Z" transform="translate(-245.278 -403.102)"/><path class="d" d="M316.494,405.411a2.157,2.157,0,0,1,.553.085.765.765,0,0,1,.383.255,1,1,0,0,1,.213.426c.043.17.085.383.128.6,0,.213.043.468.043.766v1.106a3.263,3.263,0,0,0,.043.766q0,.064.255.128a1.465,1.465,0,0,0,.383.043c0,.043.043.085.043.128,0,.085,0,.128-.043.128-.681-.043-1.064-.043-1.064-.043h-.34a1.178,1.178,0,0,0-.383.043h-.34a.156.156,0,0,1-.043-.128c0-.085,0-.128.043-.128a1.465,1.465,0,0,0,.383-.043q.255-.064.255-.128a3.06,3.06,0,0,0,.043-.766v-1.021a3.092,3.092,0,0,0-.213-1.319.83.83,0,0,0-.766-.34.952.952,0,0,0-.426.128,1.486,1.486,0,0,0-.383.255c-.085.085-.17.128-.17.17V408.6a3.262,3.262,0,0,0,.043.766q0,.064.255.128a1.466,1.466,0,0,0,.383.043c0,.043.043.085.043.128,0,.085,0,.128-.043.128-.681-.043-1.064-.043-1.064-.043h-.34a1.178,1.178,0,0,0-.383.043h-.34a.156.156,0,0,1-.043-.128c0-.085,0-.128.043-.128a1.466,1.466,0,0,0,.383-.043q.255-.064.255-.128a3.06,3.06,0,0,0,.043-.766v-4.383a1.468,1.468,0,0,0-.043-.511c-.043-.128-.255-.17-.6-.17v-.17c0-.043,0-.085.043-.085a4.878,4.878,0,0,0,1.447-.383c.043,0,.043,0,.085.043a.156.156,0,0,1,.043.128,2.485,2.485,0,0,0-.128.894v2.255h.085a3.085,3.085,0,0,1,.638-.468A.642.642,0,0,1,316.494,405.411Z" transform="translate(-251.597 -402.815)"/><path class="d" d="M328.428,408.8a2.186,2.186,0,0,1,1.575.6,2.259,2.259,0,0,1,.6,1.575,2.366,2.366,0,0,1-.6,1.617,2.089,2.089,0,0,1-1.532.638,2.052,2.052,0,0,1-1.575-.638,2.259,2.259,0,0,1-.6-1.575,2.366,2.366,0,0,1,.6-1.617A2.23,2.23,0,0,1,328.428,408.8Zm-.085.34a.966.966,0,0,0-.681.255,1.6,1.6,0,0,0-.383.638,2.56,2.56,0,0,0-.128.851,2.5,2.5,0,0,0,.17.979,2.231,2.231,0,0,0,.468.809,1.066,1.066,0,0,0,.766.34.966.966,0,0,0,.681-.255,1.6,1.6,0,0,0,.383-.638,2.56,2.56,0,0,0,.128-.851,2.5,2.5,0,0,0-.17-.979,1.929,1.929,0,0,0-.468-.809A1.04,1.04,0,0,0,328.343,409.14Z" transform="translate(-258.892 -406.204)"/><path class="d" d="M340.409,408.8a1.76,1.76,0,0,1,.809.213,1.733,1.733,0,0,1,.6.511,3.393,3.393,0,0,1,.34.681,2.115,2.115,0,0,1,.128.681,2.49,2.49,0,0,1-.213.936,2.526,2.526,0,0,1-.553.766,2.415,2.415,0,0,1-.766.511,2.093,2.093,0,0,1-.851.213,2.161,2.161,0,0,1-.723-.128.156.156,0,0,0-.043.128v.979a3.262,3.262,0,0,0,.043.766q0,.064.255.128a1.466,1.466,0,0,0,.383.043c0,.043.043.085.043.128s0,.128-.043.128c-.681-.043-1.064-.043-1.064-.043h-.34a1.313,1.313,0,0,0-.383.043h-.34a.156.156,0,0,1-.043-.128c0-.085,0-.128.043-.128a1.466,1.466,0,0,0,.383-.043q.255-.064.255-.128a2.861,2.861,0,0,0,.043-.766v-4.128a1.468,1.468,0,0,0-.043-.511c0-.043-.085-.085-.213-.128a.749.749,0,0,0-.255-.043h-.213a.329.329,0,0,0-.043-.128c0-.085,0-.128.043-.128a4.46,4.46,0,0,0,1.447-.426c.043,0,.043,0,.085.043a.132.132,0,0,1,.043.085.424.424,0,0,1-.043.17.744.744,0,0,0-.043.213v.043h.043a3.625,3.625,0,0,1,.6-.383A2.39,2.39,0,0,1,340.409,408.8Zm-.426.6a1.178,1.178,0,0,0-.553.128c-.17.085-.3.17-.3.255V412.2a.577.577,0,0,0,.3.553,1.266,1.266,0,0,0,.638.213,1.156,1.156,0,0,0,.723-.255,1.778,1.778,0,0,0,.468-.638,1.727,1.727,0,0,0,.17-.809,1.938,1.938,0,0,0-.426-1.362A1.269,1.269,0,0,0,339.983,409.4Z" transform="translate(-265.384 -406.204)"/><path class="d" d="M359.511,402.7h.3a.322.322,0,0,1,.17.085c.043.043.043.085.085.128a.256.256,0,0,1,.043.17.319.319,0,0,1-.043.213l-.128.128a.156.156,0,0,1-.128.043h-.128a.74.74,0,0,1-.3-.128,1.082,1.082,0,0,0-.3-.085.409.409,0,0,0-.383.255,1.45,1.45,0,0,0-.17.681v1.234h1.192c.043,0,.043.043.043.128a.386.386,0,0,1-.128.3h-1.106v2.638a3.265,3.265,0,0,0,.043.766q0,.064.255.128a1.465,1.465,0,0,0,.383.043c0,.043.043.085.043.128,0,.085,0,.128-.043.128-.681-.043-1.064-.043-1.106-.043h-.34a1.312,1.312,0,0,0-.383.043h-.34a.156.156,0,0,1-.043-.128c0-.085,0-.128.043-.128a1.465,1.465,0,0,0,.383-.043q.255-.064.255-.128a3.06,3.06,0,0,0,.043-.766v-2.638h-.6c-.043,0-.043-.043-.043-.085a.735.735,0,0,1,.128-.17l.17-.17h.383v-.213a2.86,2.86,0,0,1,.17-1.021,2.74,2.74,0,0,1,.468-.851,3.389,3.389,0,0,1,.553-.553C359.17,402.785,359.341,402.7,359.511,402.7Z" transform="translate(-276.528 -402.7)"/><path class="d" d="M367.562,407.924a1.667,1.667,0,0,0-.085-.553.616.616,0,0,0-.553-.213.186.186,0,0,1-.043-.128c0-.085,0-.128.043-.128a3.971,3.971,0,0,0,1.362-.213c.043,0,.043.043.085.085a.329.329,0,0,1,.043.128,1.686,1.686,0,0,0-.085.638v2.128a3.816,3.816,0,0,0,.085.766c0,.043.043.085.128.085a.319.319,0,0,0,.213.043h.255a.186.186,0,0,1,.043.128.132.132,0,0,1-.043.085.148.148,0,0,1-.043.085,1.057,1.057,0,0,0-.34.043.8.8,0,0,0-.34.085,2.706,2.706,0,0,0-.3.085c-.085.043-.17.043-.213.085l-.085.043c-.043,0-.043,0-.043-.043s-.043-.085-.043-.128v-.511a4.143,4.143,0,0,1-.638.468,2.1,2.1,0,0,1-.766.213,1.178,1.178,0,0,1-.553-.128,1.469,1.469,0,0,1-.383-.34,1.573,1.573,0,0,1-.213-.468c-.043-.17-.085-.383-.128-.511,0-.17-.043-.34-.043-.553v-1.277a1.668,1.668,0,0,0-.085-.553.616.616,0,0,0-.553-.213.186.186,0,0,1-.043-.128c0-.085,0-.128.043-.128a3.971,3.971,0,0,0,1.362-.213c.043,0,.043.043.085.085a.156.156,0,0,1,.043.128,1.983,1.983,0,0,0-.085.681v1.489a2.154,2.154,0,0,0,.255,1.192.859.859,0,0,0,.766.383,1.2,1.2,0,0,0,.638-.17c.213-.128.3-.255.3-.383v-2.17Zm-2-2.724a.566.566,0,0,1,.34.128.483.483,0,0,1,.128.34.566.566,0,0,1-.128.34.468.468,0,0,1-.809-.34.439.439,0,0,1,.468-.468Zm1.872,0a.566.566,0,0,1,.34.128.483.483,0,0,1,.128.34.566.566,0,0,1-.128.34.468.468,0,0,1-.809-.34.566.566,0,0,1,.128-.34A.483.483,0,0,1,367.434,405.2Z" transform="translate(-280.664 -404.136)"/><path class="d" d="M379.524,408.8a1.242,1.242,0,0,1,.383.085.436.436,0,0,1,.255.213.539.539,0,0,1,.043.255.52.52,0,0,1-.128.383.389.389,0,0,1-.213.128.156.156,0,0,1-.128-.043c-.043,0-.085-.043-.128-.085l-.085-.085a.686.686,0,0,0-.383-.128.724.724,0,0,0-.553.34,1.03,1.03,0,0,0-.255.553v1.532a3.265,3.265,0,0,0,.043.766c0,.043.128.085.34.128a2.443,2.443,0,0,0,.511.043c0,.043.043.085.043.128,0,.085,0,.128-.043.128-.681-.043-1.106-.043-1.234-.043-.043,0-.426,0-1.106.043a.156.156,0,0,1-.043-.128c0-.085,0-.128.043-.128a1.466,1.466,0,0,0,.383-.043q.255-.064.255-.128a2.864,2.864,0,0,0,.043-.766v-1.787a1.469,1.469,0,0,0-.043-.511c0-.043-.085-.085-.213-.128a.749.749,0,0,0-.255-.043h-.213a.329.329,0,0,0-.043-.128c0-.085,0-.128.043-.128a4.461,4.461,0,0,0,1.447-.426c.043,0,.043,0,.085.043a.132.132,0,0,1,.043.085,2.811,2.811,0,0,1-.043.468,3.391,3.391,0,0,1-.043.468v.043h0a2.8,2.8,0,0,1,.511-.723A1.024,1.024,0,0,1,379.524,408.8Z" transform="translate(-287.902 -406.204)"/><path class="d" d="M395.483,405.411a1.465,1.465,0,0,1,.383.043c.17.043.255.043.3.085.043,0,.043-.085.043-.213v-1.106a1.468,1.468,0,0,0-.043-.511c-.043-.128-.255-.17-.6-.17v-.17c0-.043,0-.085.043-.085a4.878,4.878,0,0,0,1.447-.383c.043,0,.043,0,.085.043a.156.156,0,0,1,.043.128,2.486,2.486,0,0,0-.128.894v4.3a3.415,3.415,0,0,0,.085.979c0,.043.043.085.128.085a.256.256,0,0,0,.17.043h.255a.186.186,0,0,1,.043.128.132.132,0,0,1-.043.085.042.042,0,0,1-.043.043,1.058,1.058,0,0,0-.34.043.8.8,0,0,0-.34.085,2.713,2.713,0,0,0-.3.085c-.085.043-.17.043-.213.085l-.085.043c-.043,0-.085-.043-.085-.213v-.34c0-.043,0-.043-.043-.043a1.424,1.424,0,0,1-.6.383,2.1,2.1,0,0,1-.766.213,1.553,1.553,0,0,1-1.234-.638,2.41,2.41,0,0,1-.553-1.532,1.94,1.94,0,0,1,.255-.936,3.669,3.669,0,0,1,.6-.766,2.48,2.48,0,0,1,.766-.468A2.1,2.1,0,0,1,395.483,405.411Zm-.3.426a1,1,0,0,0-.894.511,2.14,2.14,0,0,0-.34,1.149,2.068,2.068,0,0,0,.383,1.277,1.213,1.213,0,0,0,1.021.511,1.36,1.36,0,0,0,.6-.128c.17-.085.3-.17.3-.255v-2.553c0-.128-.128-.213-.34-.34A1.4,1.4,0,0,0,395.185,405.836Z" transform="translate(-297.266 -402.815)"/><path class="d" d="M406.532,407.249v2.085a3.262,3.262,0,0,0,.043.766q0,.064.255.128a1.466,1.466,0,0,0,.383.043c0,.043.043.085.043.128,0,.085,0,.128-.043.128-.681-.043-1.064-.043-1.064-.043h-.34a1.178,1.178,0,0,0-.383.043h-.34a.156.156,0,0,1-.043-.128c0-.085,0-.128.043-.128a1.466,1.466,0,0,0,.383-.043q.255-.064.255-.128a2.861,2.861,0,0,0,.043-.766v-1.872a1.468,1.468,0,0,0-.043-.511c0-.043-.085-.085-.213-.128a.749.749,0,0,0-.255-.043h-.213a.329.329,0,0,0-.043-.128c0-.085,0-.128.043-.128a4.46,4.46,0,0,0,1.447-.426c.043,0,.043,0,.085.043a.132.132,0,0,1,.043.085c-.043.34-.085.553-.085.681v.34Zm-.809-2.341a.518.518,0,1,1,.34.128A.483.483,0,0,1,405.723,404.909Z" transform="translate(-304.102 -403.504)"/><path class="d" d="M412.538,410.715a1.982,1.982,0,0,0,.468,1.447,1.545,1.545,0,0,0,1.192.511,1.025,1.025,0,0,0,.638-.17c.213-.128.34-.255.468-.34h.043l.043.043v.085a.256.256,0,0,1-.043.17,1.128,1.128,0,0,1-.213.255,1.85,1.85,0,0,1-.3.255,1.331,1.331,0,0,1-.426.213,2.136,2.136,0,0,1-.511.085,1.956,1.956,0,0,1-1.447-.6,2.022,2.022,0,0,1-.553-1.489,2.29,2.29,0,0,1,.17-.936,2.481,2.481,0,0,1,1.106-1.277,1.459,1.459,0,0,1,.681-.17,3.283,3.283,0,0,1,.638.085,1.86,1.86,0,0,1,.426.255.662.662,0,0,1,.255.34.679.679,0,0,1,.128.34.831.831,0,0,1,.043.3.731.731,0,0,1-.043.34c-.043.085-.085.128-.17.128-.128,0-.553.043-1.319.043A12.142,12.142,0,0,1,412.538,410.715Zm.043-.383h1.66a.2.2,0,0,0,.213-.213.54.54,0,0,0-.043-.255c-.043-.085-.085-.213-.128-.3a.384.384,0,0,0-.255-.255.686.686,0,0,0-.383-.128.719.719,0,0,0-.426.128,1,1,0,0,0-.3.3,1.273,1.273,0,0,0-.17.34,1.082,1.082,0,0,0-.085.3A.083.083,0,0,1,412.581,410.332Z" transform="translate(-308.065 -406.204)"/><path class="d" d="M433.709,405.43a2.054,2.054,0,0,1-.6,1.489,2.266,2.266,0,0,1-1.617.553,1.067,1.067,0,0,1-.426-.085.234.234,0,0,1-.128-.213v-.085h.043a2.157,2.157,0,0,0,.383.085,1.262,1.262,0,0,0,1.021-.426,1.7,1.7,0,0,0,.383-1.149,1.679,1.679,0,0,0-.426-1.234,1.616,1.616,0,0,0-1.234-.426.95.95,0,0,0-.511.085,2.864,2.864,0,0,0-.043.766v4.3a3.265,3.265,0,0,0,.043.766c0,.043.128.085.3.128a1.6,1.6,0,0,0,.426.043c0,.043.043.085.043.128,0,.085,0,.128-.043.128-.681-.043-1.064-.043-1.192-.043-.085,0-.511,0-1.192.043a.156.156,0,0,1-.043-.128c0-.085,0-.128.043-.128a1.763,1.763,0,0,0,.426-.043.656.656,0,0,0,.3-.128,3.062,3.062,0,0,0,.043-.766v-4.3a3.265,3.265,0,0,0-.043-.766c0-.043-.128-.085-.3-.128a1.6,1.6,0,0,0-.426-.043c0-.043-.043-.085-.043-.128,0-.085,0-.128.043-.128.681.043,1.064.043,1.192.043h1.447a2.571,2.571,0,0,1,1.021.213,1.7,1.7,0,0,1,.809.638A1.306,1.306,0,0,1,433.709,405.43Z" transform="translate(-317.831 -403.217)"/><path class="d" d="M442.323,408.53v-2.511c0-.043,0-.085-.043-.085h-.553a.042.042,0,0,1-.043-.043.539.539,0,0,1,.043-.255l.085-.17h.426c.043,0,.043,0,.043-.043V405.3a2.861,2.861,0,0,1,.17-1.021,2.134,2.134,0,0,1,.468-.809,2.6,2.6,0,0,1,.638-.553,1.569,1.569,0,0,1,.723-.213,1.545,1.545,0,0,1,.468.128,1.545,1.545,0,0,0,.468.128.724.724,0,0,0,.3-.043,2.072,2.072,0,0,0,.3-.128.329.329,0,0,1,.128-.043h.043c.043,0,.043,0,.085.043a.132.132,0,0,1,.043.085,2.487,2.487,0,0,0-.128.894v4.6a4.517,4.517,0,0,0,.085.894q0,.064.255.128a1.913,1.913,0,0,0,.34.085c.043,0,.043.043.043.128v.17c-.681-.043-1.021-.043-1.064-.043s-.426,0-1.106.043c-.043-.043-.043-.085-.043-.17s0-.128.043-.128a1.057,1.057,0,0,0,.34-.043c.128-.043.255-.085.255-.128a3.374,3.374,0,0,0,.085-.723V404.7a1.953,1.953,0,0,0-.043-.426,1.755,1.755,0,0,0-.085-.383,3.3,3.3,0,0,0-.426-.511,1.2,1.2,0,0,0-.681-.3.607.607,0,0,0-.511.255,1.661,1.661,0,0,0-.3.681,2.756,2.756,0,0,0-.085.851v.553h1.192v.043a.687.687,0,0,1-.128.383h-1.064v2.383a3.871,3.871,0,0,0,.085.894q0,.064.255.128a1.916,1.916,0,0,0,.34.085c.043,0,.043.043.043.128v.17c-.681-.043-1.021-.043-1.064-.043s-.426,0-1.106.043c-.043-.043-.043-.085-.043-.17s0-.128.043-.128a1.058,1.058,0,0,0,.34-.043c.128-.043.255-.085.255-.128A2.074,2.074,0,0,0,442.323,408.53Z" transform="translate(-325.126 -402.7)"/><path class="d" d="M455.838,410.715a1.982,1.982,0,0,0,.468,1.447,1.545,1.545,0,0,0,1.192.511,1.025,1.025,0,0,0,.638-.17c.213-.128.34-.255.468-.34h.043l.043.043v.085a.256.256,0,0,1-.043.17,1.126,1.126,0,0,1-.213.255,1.851,1.851,0,0,1-.3.255,1.331,1.331,0,0,1-.426.213,2.137,2.137,0,0,1-.511.085,1.956,1.956,0,0,1-1.447-.6,2.022,2.022,0,0,1-.553-1.489,2.29,2.29,0,0,1,.17-.936,2.48,2.48,0,0,1,1.106-1.277,1.459,1.459,0,0,1,.681-.17,3.284,3.284,0,0,1,.638.085,1.861,1.861,0,0,1,.426.255.662.662,0,0,1,.255.34.679.679,0,0,1,.128.34.831.831,0,0,1,.043.3.732.732,0,0,1-.043.34c-.043.085-.085.128-.17.128-.128,0-.553.043-1.319.043A11.559,11.559,0,0,1,455.838,410.715Zm.043-.383h1.66a.2.2,0,0,0,.213-.213.54.54,0,0,0-.043-.255c-.043-.085-.085-.213-.128-.3a.384.384,0,0,0-.255-.255.686.686,0,0,0-.383-.128.719.719,0,0,0-.426.128,1,1,0,0,0-.3.3,1.274,1.274,0,0,0-.17.34,1.083,1.083,0,0,0-.085.3A.083.083,0,0,1,455.881,410.332Z" transform="translate(-332.939 -406.204)"/><path class="d" d="M467.666,412.487a1.862,1.862,0,0,1,1.064.34.947.947,0,0,1,.468.723,1.266,1.266,0,0,1-.213.638,2.427,2.427,0,0,1-.553.6,3.186,3.186,0,0,1-.851.468,2.639,2.639,0,0,1-.979.17,2.477,2.477,0,0,1-.809-.128,1.307,1.307,0,0,1-.638-.426,1.043,1.043,0,0,1-.255-.681.679.679,0,0,1,.128-.34.994.994,0,0,1,.3-.3,2.362,2.362,0,0,0,.34-.255,1.066,1.066,0,0,1,.3-.17,1.5,1.5,0,0,1-.553-.34.773.773,0,0,1-.255-.6,2.074,2.074,0,0,1,.426-.34c.213-.128.34-.255.468-.34a1.5,1.5,0,0,1-.6-.553,1.189,1.189,0,0,1-.213-.723,1.349,1.349,0,0,1,.511-1.064,1.747,1.747,0,0,1,1.192-.468h.255a1.84,1.84,0,0,1,.213.043.322.322,0,0,0,.17.043c.043,0,.085.043.17.043l.128.043c.085.043.17.043.213.085l1.064-.17c.085,0,.085.043.085.085a.719.719,0,0,1-.085.213.425.425,0,0,1-.17.213l-.681-.043c-.043,0-.043,0-.043.043a2.364,2.364,0,0,1,.17.34,1.257,1.257,0,0,1,.085.553,1.33,1.33,0,0,1-.511,1.021,1.747,1.747,0,0,1-1.192.468.831.831,0,0,1-.3-.043,1.505,1.505,0,0,1-.255-.043,1.128,1.128,0,0,0-.255.213.368.368,0,0,0-.128.255c0,.085.043.128.17.213a.719.719,0,0,0,.426.128h1.192Zm-.468.723a3.737,3.737,0,0,0-.936.043,2.583,2.583,0,0,0-.426.3.588.588,0,0,0-.213.383,1.09,1.09,0,0,0,.34.809,1.419,1.419,0,0,0,.979.3,1.348,1.348,0,0,0,.681-.17,1.527,1.527,0,0,0,.6-.426.674.674,0,0,0,.213-.511.6.6,0,0,0-.085-.255,1.129,1.129,0,0,0-.213-.255,1,1,0,0,0-.426-.213Zm-.426-4.17a.808.808,0,0,0-.638.34,1.4,1.4,0,0,0-.255.809,1.573,1.573,0,0,0,.255.894.836.836,0,0,0,.723.383.808.808,0,0,0,.638-.34,1.285,1.285,0,0,0,.213-.809,1.573,1.573,0,0,0-.255-.894A.767.767,0,0,0,466.772,409.04Z" transform="translate(-338.511 -406.147)"/><path class="d" d="M477.038,410.715a1.982,1.982,0,0,0,.468,1.447,1.545,1.545,0,0,0,1.192.511,1.025,1.025,0,0,0,.638-.17c.213-.128.34-.255.468-.34h.043l.043.043v.085a.256.256,0,0,1-.043.17,1.129,1.129,0,0,1-.213.255,1.852,1.852,0,0,1-.3.255,1.331,1.331,0,0,1-.426.213,2.137,2.137,0,0,1-.511.085,1.956,1.956,0,0,1-1.447-.6,2.022,2.022,0,0,1-.553-1.489,2.29,2.29,0,0,1,.17-.936,2.481,2.481,0,0,1,1.106-1.277,1.459,1.459,0,0,1,.681-.17,3.283,3.283,0,0,1,.638.085,1.86,1.86,0,0,1,.426.255.662.662,0,0,1,.255.34.679.679,0,0,1,.128.34.831.831,0,0,1,.043.3.731.731,0,0,1-.043.34c-.043.085-.085.128-.17.128-.128,0-.553.043-1.319.043A11.559,11.559,0,0,1,477.038,410.715Zm.043-.383h1.66a.2.2,0,0,0,.213-.213.54.54,0,0,0-.043-.255c-.043-.085-.085-.213-.128-.3a.384.384,0,0,0-.255-.255.686.686,0,0,0-.383-.128.719.719,0,0,0-.426.128,1,1,0,0,0-.3.3,1.274,1.274,0,0,0-.17.34,1.083,1.083,0,0,0-.085.3C477.081,410.289,477.081,410.332,477.081,410.332Z" transform="translate(-345.117 -406.204)"/><path class="d" d="M493.521,408.985h.34a.937.937,0,0,0,.34-.043h.34v.17a.186.186,0,0,1-.043.128h-.17c-.085,0-.128.043-.213.043q-.128.064-.128.128v.043l1.106,2.724q.511-1.34.894-2.3a.83.83,0,0,0,.043-.34.308.308,0,0,0-.17-.255,1.259,1.259,0,0,0-.426-.085c-.043,0-.043-.043-.043-.128s0-.128.043-.17h.255a.54.54,0,0,1,.255.043h.6a.725.725,0,0,0,.3-.043h.34c0,.043.043.085,0,.17a.186.186,0,0,1-.043.128,1.316,1.316,0,0,0-.34.085.45.45,0,0,0-.3.255c-.723,1.7-1.234,2.936-1.489,3.617q0,.064-.128.128a.21.21,0,0,1-.128.043c-.043,0-.085,0-.085-.043-.17-.383-.34-.851-.553-1.362-.213-.553-.426-1.021-.6-1.4s-.34-.766-.511-1.106a.616.616,0,0,0-.553-.213.363.363,0,0,1,0-.3h.34a.83.83,0,0,1,.34.043A1.056,1.056,0,0,0,493.521,408.985Z" transform="translate(-354.323 -406.262)"/><path class="d" d="M506.528,408.8a2.186,2.186,0,0,1,1.575.6,2.259,2.259,0,0,1,.6,1.575,2.366,2.366,0,0,1-.6,1.617,2.089,2.089,0,0,1-1.532.638,2.052,2.052,0,0,1-1.575-.638,2.259,2.259,0,0,1-.6-1.575,2.366,2.366,0,0,1,.6-1.617A2.23,2.23,0,0,1,506.528,408.8Zm-.085.34a.966.966,0,0,0-.681.255,1.6,1.6,0,0,0-.383.638,2.559,2.559,0,0,0-.128.851,2.5,2.5,0,0,0,.17.979,2.231,2.231,0,0,0,.468.809,1.066,1.066,0,0,0,.766.34.966.966,0,0,0,.681-.255,1.6,1.6,0,0,0,.383-.638,2.56,2.56,0,0,0,.128-.851,2.5,2.5,0,0,0-.17-.979,1.928,1.928,0,0,0-.468-.809A1.04,1.04,0,0,0,506.443,409.14Z" transform="translate(-361.202 -406.204)"/><path class="d" d="M519.136,408.743a2.155,2.155,0,0,1,.553.085.765.765,0,0,1,.383.255,1,1,0,0,1,.213.426c.043.17.085.383.128.6,0,.213.043.468.043.766v1.106a3.265,3.265,0,0,0,.043.766q0,.064.255.128a1.466,1.466,0,0,0,.383.043c0,.043.043.085.043.128,0,.085,0,.128-.043.128-.681-.043-1.064-.043-1.064-.043h-.34a1.178,1.178,0,0,0-.383.043h-.34a.156.156,0,0,1-.043-.128c0-.085,0-.128.043-.128a1.466,1.466,0,0,0,.383-.043q.255-.064.255-.128a3.057,3.057,0,0,0,.043-.766v-1.021a3.092,3.092,0,0,0-.213-1.319.83.83,0,0,0-.766-.34.952.952,0,0,0-.426.128,1.485,1.485,0,0,0-.383.255c-.085.085-.17.128-.17.17v2.085a3.265,3.265,0,0,0,.043.766q0,.064.255.128a1.466,1.466,0,0,0,.383.043c0,.043.043.085.043.128,0,.085,0,.128-.043.128-.681-.043-1.064-.043-1.064-.043h-.34a1.179,1.179,0,0,0-.383.043h-.34a.156.156,0,0,1-.043-.128c0-.085,0-.128.043-.128a1.466,1.466,0,0,0,.383-.043q.255-.064.255-.128a3.066,3.066,0,0,0,.042-.766V410.1a1.623,1.623,0,0,0-.042-.553c0-.043-.085-.085-.213-.128a.749.749,0,0,0-.255-.043h-.213a.33.33,0,0,0-.043-.128c0-.085,0-.128.043-.128a4.463,4.463,0,0,0,1.447-.426c.043,0,.043,0,.085.043a.132.132,0,0,1,.043.085,3.6,3.6,0,0,0-.043.553v.043h.043a3.085,3.085,0,0,1,.638-.468A1.413,1.413,0,0,1,519.136,408.743Z" transform="translate(-367.98 -406.147)"/><path class="d" d="M537.219,403.428a6.711,6.711,0,0,0,.809-.043c.043.17.213.553.468,1.149s.553,1.277.894,2.128c.34.809.6,1.447.809,1.915h.043c.043,0,.043,0,.043-.043q1.468-3.766,1.532-3.958l.426-1.192a7.522,7.522,0,0,0,.809.043,8.566,8.566,0,0,0,1.106-.043l.043.3a1.953,1.953,0,0,0-.426.043c-.17.043-.3.085-.3.128a.945.945,0,0,0-.043.383c0,.213,0,.553.043,1.064,0,.511.043,1.106.043,1.83,0,.681.043,1.192.043,1.489a2.545,2.545,0,0,0,.128.979c0,.043.128.085.3.128a1.6,1.6,0,0,0,.426.043c.042.043.042.085.042.17v.128c-.681-.043-1.064-.043-1.192-.043h-.383a1.6,1.6,0,0,0-.426.043h-.383a.186.186,0,0,1-.043-.128c0-.085,0-.128.043-.17a1.057,1.057,0,0,0,.34-.043c.17-.043.255-.043.3-.085a.682.682,0,0,0,.085-.426v-.6c-.042-2.085-.085-3.49-.128-4.3a.156.156,0,0,0-.043-.128.092.092,0,0,0-.085-.085.149.149,0,0,0-.043.085c-.17.383-.851,2.17-2.128,5.319a2.442,2.442,0,0,1-.17.3c-.085.128-.17.213-.213.213H539.9l-2.468-5.873c0,.638-.043,1.4-.043,2.213-.043.851-.043,1.532-.043,2.085a5.559,5.559,0,0,1-.043.809c0,.128,0,.255.043.3a.425.425,0,0,0,.34.128,2.089,2.089,0,0,0,.468.043.156.156,0,0,1,.043.128v.128h-.34a1.178,1.178,0,0,1-.383-.043h-.724a1.6,1.6,0,0,0-.426.043h-.383a.329.329,0,0,0-.043-.128c0-.085,0-.128.043-.17a2.088,2.088,0,0,0,.468-.043.672.672,0,0,0,.34-.128.739.739,0,0,0,.128-.511c.085-2.511.128-4.128.128-4.809,0-.213,0-.34-.043-.383,0-.043-.128-.085-.3-.128a1.873,1.873,0,0,0-.426-.085v-.3a.829.829,0,0,1,.34.043h.34C536.964,403.428,537.091,403.428,537.219,403.428Z" transform="translate(-379.297 -403.045)"/><path class="d" d="M557.938,410.715a1.982,1.982,0,0,0,.468,1.447,1.545,1.545,0,0,0,1.192.511,1.025,1.025,0,0,0,.638-.17c.213-.128.34-.255.468-.34h.043l.043.043v.085a.256.256,0,0,1-.043.17,1.126,1.126,0,0,1-.213.255,1.851,1.851,0,0,1-.3.255,1.331,1.331,0,0,1-.426.213,2.136,2.136,0,0,1-.511.085,1.956,1.956,0,0,1-1.447-.6,2.022,2.022,0,0,1-.553-1.489,2.29,2.29,0,0,1,.17-.936,2.48,2.48,0,0,1,1.106-1.277,1.459,1.459,0,0,1,.681-.17,3.283,3.283,0,0,1,.638.085,1.861,1.861,0,0,1,.426.255.662.662,0,0,1,.255.34.679.679,0,0,1,.128.34c0,.085.043.213.043.3a.731.731,0,0,1-.043.34c-.043.085-.085.128-.17.128-.128,0-.553.043-1.319.043A12.141,12.141,0,0,1,557.938,410.715Zm.043-.383h1.66a.2.2,0,0,0,.213-.213.539.539,0,0,0-.043-.255c-.042-.085-.085-.213-.128-.3a.5.5,0,0,0-.255-.255.687.687,0,0,0-.383-.128.719.719,0,0,0-.426.128.671.671,0,0,0-.3.3,1.275,1.275,0,0,0-.17.34,1.085,1.085,0,0,0-.085.3C557.981,410.289,557.981,410.332,557.981,410.332Z" transform="translate(-391.59 -406.204)"/><path class="d" d="M569.994,408.743a2.155,2.155,0,0,1,.553.085.765.765,0,0,1,.383.255,1,1,0,0,1,.213.426c.043.17.085.383.128.6,0,.213.042.468.042.766v1.106a3.26,3.26,0,0,0,.043.766q0,.064.255.128a1.466,1.466,0,0,0,.383.043c0,.043.043.085.043.128,0,.085,0,.128-.043.128-.681-.043-1.064-.043-1.064-.043h-.34a1.178,1.178,0,0,0-.383.043h-.34a.156.156,0,0,1-.043-.128c0-.085,0-.128.043-.128a1.466,1.466,0,0,0,.383-.043q.255-.064.255-.128a3.062,3.062,0,0,0,.043-.766v-1.021a3.092,3.092,0,0,0-.213-1.319.83.83,0,0,0-.766-.34.952.952,0,0,0-.426.128,1.485,1.485,0,0,0-.383.255c-.085.085-.17.128-.17.17v2.085a3.265,3.265,0,0,0,.043.766q0,.064.255.128a1.466,1.466,0,0,0,.383.043c0,.043.043.085.043.128,0,.085,0,.128-.043.128-.681-.043-1.064-.043-1.064-.043h-.34a1.179,1.179,0,0,0-.383.043h-.34A.156.156,0,0,1,567.1,413c0-.085,0-.128.043-.128a1.466,1.466,0,0,0,.383-.043q.255-.064.255-.128a3.062,3.062,0,0,0,.043-.766V410.1a1.621,1.621,0,0,0-.043-.553c0-.043-.085-.085-.17-.128a.749.749,0,0,0-.255-.043h-.213a.186.186,0,0,1-.043-.128c0-.085,0-.128.043-.128a4.463,4.463,0,0,0,1.447-.426c.043,0,.043,0,.085.043a.132.132,0,0,1,.043.085,3.6,3.6,0,0,0-.043.553v.043h.043a3.087,3.087,0,0,1,.638-.468A1.266,1.266,0,0,1,569.994,408.743Z" transform="translate(-397.219 -406.147)"/><path class="d" d="M581.489,408.8a2.618,2.618,0,0,1,.553.043,3.18,3.18,0,0,1,.468.085,4.163,4.163,0,0,1,.128,1.106c0,.043-.043.043-.085.043-.085,0-.128,0-.17-.043a1.564,1.564,0,0,0-.34-.638.658.658,0,0,0-.511-.3.622.622,0,0,0-.511.17.581.581,0,0,0-.17.468.54.54,0,0,0,.043.255c.043.085.043.128.085.17l.17.17a.589.589,0,0,1,.17.128.93.93,0,0,0,.213.128.93.93,0,0,1,.213.128c.043,0,.085.043.213.128.085.043.17.128.213.128a.929.929,0,0,0,.213.128.928.928,0,0,1,.213.17c.042.043.085.128.17.17.043.085.085.128.128.213a.54.54,0,0,1,.043.255,1.272,1.272,0,0,1-.468.979,1.667,1.667,0,0,1-1.106.383,1.179,1.179,0,0,1-.383-.043,1.873,1.873,0,0,1-.426-.085,2.712,2.712,0,0,1-.383-.085,2.12,2.12,0,0,1-.128-.511,2.825,2.825,0,0,1-.043-.553.256.256,0,0,1,.17-.043h.085a1.308,1.308,0,0,0,.426.638.907.907,0,0,0,.681.3.726.726,0,0,0,.723-.723.631.631,0,0,0-.043-.3,1.129,1.129,0,0,0-.213-.255c-.085-.085-.17-.128-.255-.213a3.933,3.933,0,0,1-.34-.213l-.34-.17a1.536,1.536,0,0,1-.553-.468,1.045,1.045,0,0,1-.213-.638,1.125,1.125,0,0,1,.426-.894A2.536,2.536,0,0,1,581.489,408.8Z" transform="translate(-404.63 -406.204)"/><path class="d" d="M592.1,409.3a.52.52,0,0,1-.128.383.368.368,0,0,1-.255.128c-.085,0-.128-.043-.213-.085a.747.747,0,0,1-.213-.17c-.085-.085-.128-.128-.17-.128a2.446,2.446,0,0,0-.3-.17.631.631,0,0,0-.3-.043.952.952,0,0,0-.766.468,2.122,2.122,0,0,0-.34,1.234,1.737,1.737,0,0,0,.468,1.277,1.577,1.577,0,0,0,1.192.426,1.025,1.025,0,0,0,.638-.17,1.857,1.857,0,0,0,.426-.34h.043l.043.043v.085a.256.256,0,0,1-.043.17,1.127,1.127,0,0,1-.213.255,1.848,1.848,0,0,1-.3.255,1.331,1.331,0,0,1-.426.213,2.137,2.137,0,0,1-.511.085,1.828,1.828,0,0,1-1.064-.3,2.084,2.084,0,0,1-.723-.766,1.977,1.977,0,0,1-.255-.979,1.727,1.727,0,0,1,.17-.809,1.853,1.853,0,0,1,.426-.681,2.082,2.082,0,0,1,.553-.511,4.66,4.66,0,0,1,.638-.34,1.707,1.707,0,0,1,.638-.128,1.481,1.481,0,0,1,.894.255c.043.043.043.085.085.128C592.062,409.168,592.1,409.211,592.1,409.3Z" transform="translate(-409.628 -406.147)"/><path class="d" d="M600.994,405.411a2.157,2.157,0,0,1,.553.085.765.765,0,0,1,.383.255,1,1,0,0,1,.213.426c.043.17.085.383.128.6,0,.213.043.468.043.766v1.106a3.265,3.265,0,0,0,.043.766q0,.064.255.128a1.465,1.465,0,0,0,.383.043c0,.043.043.085.043.128,0,.085,0,.128-.043.128-.681-.043-1.064-.043-1.064-.043h-.34a1.312,1.312,0,0,0-.383.043h-.34a.156.156,0,0,1-.043-.128c0-.085,0-.128.043-.128a1.465,1.465,0,0,0,.383-.043q.255-.064.255-.128a3.066,3.066,0,0,0,.042-.766v-1.021a3.092,3.092,0,0,0-.213-1.319.83.83,0,0,0-.766-.34.952.952,0,0,0-.426.128,1.486,1.486,0,0,0-.383.255c-.085.085-.17.128-.17.17V408.6a3.265,3.265,0,0,0,.043.766q0,.064.255.128a1.467,1.467,0,0,0,.383.043c0,.043.042.085.042.128,0,.085,0,.128-.042.128-.681-.043-1.064-.043-1.064-.043h-.34a1.312,1.312,0,0,0-.383.043h-.34a.156.156,0,0,1-.043-.128c0-.085,0-.128.043-.128a1.466,1.466,0,0,0,.383-.043q.255-.064.255-.128a3.057,3.057,0,0,0,.043-.766v-4.383a1.467,1.467,0,0,0-.043-.511c-.042-.128-.255-.17-.6-.17v-.17c0-.043,0-.085.043-.085a4.878,4.878,0,0,0,1.447-.383c.043,0,.043,0,.085.043a.156.156,0,0,1,.043.128,2.485,2.485,0,0,0-.128.894v2.255h.085a3.087,3.087,0,0,1,.638-.468A.643.643,0,0,1,600.994,405.411Z" transform="translate(-415.027 -402.815)"/><path class="d" d="M611.638,410.715a1.982,1.982,0,0,0,.468,1.447,1.545,1.545,0,0,0,1.192.511,1.026,1.026,0,0,0,.638-.17c.213-.128.34-.255.468-.34h.043l.042.043v.085a.256.256,0,0,1-.042.17,1.128,1.128,0,0,1-.213.255,1.852,1.852,0,0,1-.3.255,1.33,1.33,0,0,1-.426.213,2.137,2.137,0,0,1-.511.085,1.956,1.956,0,0,1-1.447-.6,2.022,2.022,0,0,1-.553-1.489,2.29,2.29,0,0,1,.17-.936,2.48,2.48,0,0,1,1.106-1.277,1.459,1.459,0,0,1,.681-.17,3.283,3.283,0,0,1,.638.085,1.858,1.858,0,0,1,.426.255.662.662,0,0,1,.255.34.679.679,0,0,1,.128.34c0,.085.042.213.042.3a.733.733,0,0,1-.042.34c-.043.085-.085.128-.17.128-.128,0-.553.043-1.319.043A12.139,12.139,0,0,1,611.638,410.715Zm.043-.383h1.66a.2.2,0,0,0,.213-.213.54.54,0,0,0-.043-.255c-.043-.085-.085-.213-.128-.3a.5.5,0,0,0-.255-.255.686.686,0,0,0-.383-.128.719.719,0,0,0-.426.128.671.671,0,0,0-.3.3,1.274,1.274,0,0,0-.17.34,1.083,1.083,0,0,0-.085.3C611.681,410.289,611.681,410.332,611.681,410.332Z" transform="translate(-422.438 -406.204)"/><path class="d" d="M623.694,408.743a2.155,2.155,0,0,1,.553.085.765.765,0,0,1,.383.255,1,1,0,0,1,.213.426c.043.17.085.383.128.6,0,.213.042.468.042.766v1.106a3.26,3.26,0,0,0,.043.766q0,.064.255.128a1.466,1.466,0,0,0,.383.043c0,.043.043.085.043.128,0,.085,0,.128-.043.128-.681-.043-1.064-.043-1.064-.043h-.34a1.178,1.178,0,0,0-.383.043h-.34a.156.156,0,0,1-.043-.128c0-.085,0-.128.043-.128a1.466,1.466,0,0,0,.383-.043q.255-.064.255-.128a3.062,3.062,0,0,0,.043-.766v-1.021a3.092,3.092,0,0,0-.213-1.319.83.83,0,0,0-.766-.34.952.952,0,0,0-.426.128,1.488,1.488,0,0,0-.383.255c-.085.085-.17.128-.17.17v2.085a3.269,3.269,0,0,0,.042.766q0,.064.255.128a1.466,1.466,0,0,0,.383.043c0,.043.043.085.043.128,0,.085,0,.128-.043.128-.681-.043-1.064-.043-1.064-.043h-.34a1.178,1.178,0,0,0-.383.043h-.34A.156.156,0,0,1,620.8,413c0-.085,0-.128.043-.128a1.466,1.466,0,0,0,.383-.043q.255-.064.255-.128a3.057,3.057,0,0,0,.043-.766V410.1a1.618,1.618,0,0,0-.043-.553c0-.043-.085-.085-.17-.128a.749.749,0,0,0-.255-.043h-.213a.186.186,0,0,1-.043-.128c0-.085,0-.128.043-.128a4.463,4.463,0,0,0,1.447-.426c.042,0,.042,0,.085.043a.132.132,0,0,1,.043.085,3.6,3.6,0,0,0-.043.553v.043h.043a3.087,3.087,0,0,1,.638-.468A1.266,1.266,0,0,1,623.694,408.743Z" transform="translate(-428.067 -406.147)"/></g></g></svg>