<svg xmlns="http://www.w3.org/2000/svg" viewBox="0 0 46.093 55"><defs><style>.a{fill:#99c03a;}.b{fill:#35992d;}.c{fill:#016633;}</style></defs><g transform="translate(-627.342 -236.509)"><g transform="translate(627.342 236.509)"><path class="a" d="M634.792,247.122c-1.5,5.825-1.785,8.55.329,19.4,1.738-1.081,5.966-3.852,7.094-8.879,1.128-5.074-2.819-12.12-2.161-21.093.047-.517-3.195,3.711-7.986,9.631-8.6,10.617-3.335,17.8-.752,20.342C630.235,253.276,634.792,247.122,634.792,247.122Z" transform="translate(-627.342 -236.509)"/><path class="b" d="M662.35,289.6c-.376.329-.752.658-1.128.94,17.006,5.919,31.1-16.912,31.1-16.912-8.174-2.584-18.275-3.148-25.65,2.02a13.974,13.974,0,0,0-5.872,10.523,55.927,55.927,0,0,1,21.751-6.859C674.33,282.274,669.444,283.683,662.35,289.6Z" transform="translate(-646.23 -255.791)"/><path class="c" d="M662.2,322.336c-6.154-3.852-10.288-.423-10.288-.423a3.01,3.01,0,0,0-.329.423c.094.047.141.094.235.141,8.5,5.59,9.912,11.181,9.912,11.181-2.584-3.476-3.993-4.933-10.946-8.6a8.579,8.579,0,0,0,.188,2.349c.846,3.758,4.6,5.872,4.6,5.872,4.369,2.96,14.234,4.134,14.234,4.134C669.384,333.658,666.989,325.342,662.2,322.336Z" transform="translate(-640.209 -282.416)"/></g></g></svg>